<?xml version="1.0" encoding="iso-8859-1"?>
<!-- Uploaded to: SVG Repo, www.svgrepo.com, Generator: SVG Repo Mixer Tools -->
<svg height="800px" width="800px" version="1.1" id="Layer_1" xmlns="http://www.w3.org/2000/svg" xmlns:xlink="http://www.w3.org/1999/xlink" 
	 viewBox="0 0 512 512" xml:space="preserve">
<circle style="fill:#FFCC60;" cx="256" cy="65.777" r="25.078"/>
<path style="fill:#A5BC79;" d="M504.163,455.627c0,8.656-7.018,15.673-15.673,15.673H23.51c-8.656,0-15.673-7.018-15.673-15.673
	V225.749c0-8.656,7.018-15.673,15.673-15.673h464.98c8.656,0,15.673,7.018,15.673,15.673V455.627z"/>
<path style="fill:#FFFFFF;" d="M96.519,424.28c-4.444,0-8.401-2.811-9.866-7.007c-3.986-11.425-13.213-20.551-24.682-24.413
	c-4.252-1.432-7.115-5.417-7.115-9.902v-84.54c0-4.486,2.863-8.471,7.115-9.902c11.469-3.862,20.695-12.988,24.682-24.413
	c1.464-4.196,5.422-7.007,9.866-7.007h318.962c4.444,0,8.402,2.811,9.866,7.007c3.986,11.425,13.213,20.551,24.682,24.413
	c4.252,1.431,7.115,5.417,7.115,9.902v84.54c0,4.486-2.863,8.471-7.115,9.902c-11.469,3.862-20.695,12.988-24.682,24.413
	c-1.464,4.196-5.422,7.007-9.866,7.007H96.519z"/>
<path style="opacity:0.1;enable-background:new    ;" d="M118.523,417.274c-3.986-11.425-13.213-20.551-24.682-24.413
	c-4.252-1.431-7.115-5.417-7.115-9.902v-84.54c0-4.486,2.863-8.471,7.115-9.902c11.469-3.862,20.695-12.988,24.682-24.413
	c1.464-4.196,5.422-7.007,9.866-7.007H96.519c-4.444,0-8.401,2.811-9.866,7.007c-3.986,11.425-13.213,20.551-24.682,24.413
	c-4.252,1.432-7.115,5.417-7.115,9.902v84.54c0,4.486,2.863,8.471,7.115,9.902c11.469,3.862,20.695,12.988,24.682,24.413
	c1.464,4.196,5.422,7.007,9.866,7.007h31.869C123.945,424.28,119.987,421.469,118.523,417.274z"/>
<g>
	<circle style="fill:#FFFFFF;" cx="44.931" cy="246.648" r="12.824"/>
	<circle style="fill:#FFFFFF;" cx="468.114" cy="246.648" r="12.824"/>
	<circle style="fill:#FFFFFF;" cx="44.931" cy="431.595" r="12.824"/>
	<circle style="fill:#FFFFFF;" cx="468.114" cy="431.595" r="12.824"/>
</g>
<circle style="fill:#FFCC60;" cx="256" cy="65.777" r="25.078"/>
<path style="opacity:0.1;enable-background:new    ;" d="M251.82,65.777c0-10.12,5.998-18.833,14.629-22.795
	C263.267,41.521,259.73,40.7,256,40.7c-13.85,0-25.078,11.227-25.078,25.078S242.15,90.855,256,90.855
	c3.73,0,7.267-0.821,10.449-2.282C257.818,84.611,251.82,75.896,251.82,65.777z"/>
<g>
	<path style="fill:#22B573;" d="M121.609,340.868v-0.18c0-17.882,14.108-32.53,33.517-32.53c19.41,0,33.339,14.468,33.339,32.35
		v0.18c0,17.881-14.108,32.53-33.518,32.53S121.609,358.75,121.609,340.868z M173.997,340.868v-0.18
		c0-10.783-7.908-19.769-19.051-19.769s-18.871,8.806-18.871,19.59v0.18c0,10.782,7.908,19.769,19.05,19.769
		C166.269,360.457,173.997,351.652,173.997,340.868z"/>
	<path style="fill:#22B573;" d="M205.272,316.157c0-3.864,3.055-6.919,6.919-6.919h18.781c15.007,0,24.083,8.896,24.083,21.745v0.18
		c0,14.558-11.323,22.106-25.431,22.106h-10.513v12.49c0,3.864-3.055,6.919-6.919,6.919s-6.919-3.055-6.919-6.919v-49.601H205.272z
		 M230.074,340.958c6.919,0,10.963-4.134,10.963-9.525v-0.18c0-6.2-4.313-9.524-11.232-9.524h-10.693v19.229H230.074z"/>
	<path style="fill:#22B573;" d="M269.796,365.22v-49.063c0-3.864,3.055-6.919,6.919-6.919h34.866c3.415,0,6.2,2.786,6.2,6.2
		c0,3.416-2.786,6.112-6.2,6.112h-28.037v12.759h23.992c3.415,0,6.2,2.786,6.2,6.201c0,3.415-2.786,6.111-6.2,6.111h-23.992v13.21
		h28.485c3.415,0,6.2,2.786,6.2,6.201c0,3.414-2.786,6.111-6.2,6.111h-35.314C272.851,372.139,269.796,369.084,269.796,365.22z"/>
	<path style="fill:#22B573;" d="M334.498,315.797c0-3.864,3.055-6.919,6.919-6.919h1.438c3.325,0,5.302,1.617,7.189,4.044
		l26.689,35.045v-32.44c0-3.773,3.055-6.828,6.829-6.828s6.829,3.055,6.829,6.828v50.052c0,3.864-3.055,6.919-6.919,6.919h-0.449
		c-3.325,0-5.302-1.617-7.189-4.044l-27.677-36.303v33.697c0,3.774-3.055,6.829-6.829,6.829s-6.829-3.055-6.829-6.829V315.797z"/>
</g>
<path d="M468.114,225.987c-11.393,0-20.661,9.268-20.661,20.661s9.268,20.661,20.661,20.661c11.393,0,20.661-9.268,20.661-20.661
	C488.775,235.256,479.507,225.987,468.114,225.987z M468.114,251.635c-2.75,0-4.987-2.237-4.987-4.987s2.237-4.987,4.987-4.987
	c2.75,0,4.987,2.237,4.987,4.987C473.102,249.398,470.864,251.635,468.114,251.635z"/>
<path d="M44.931,410.933c-11.393,0-20.661,9.268-20.661,20.661c0,11.393,9.268,20.661,20.661,20.661s20.661-9.268,20.661-20.661
	C65.591,420.202,56.323,410.933,44.931,410.933z M44.931,436.581c-2.75,0-4.987-2.237-4.987-4.987s2.237-4.987,4.987-4.987
	s4.987,2.237,4.987,4.987C49.918,434.344,47.681,436.581,44.931,436.581z"/>
<path d="M468.114,410.933c-11.393,0-20.661,9.268-20.661,20.661c0,11.393,9.268,20.661,20.661,20.661
	c11.393,0,20.661-9.268,20.661-20.661C488.775,420.202,479.507,410.933,468.114,410.933z M468.114,436.581
	c-2.75,0-4.987-2.237-4.987-4.987s2.237-4.987,4.987-4.987c2.75,0,4.987,2.237,4.987,4.987
	C473.102,434.344,470.864,436.581,468.114,436.581z"/>
<path d="M464.98,382.958v-36.575h10.353c4.328,0,7.837-3.509,7.837-7.837c0-4.328-3.509-7.837-7.837-7.837H464.98v-32.292
	c0-7.859-5.004-14.823-12.45-17.33c-9.192-3.095-16.588-10.41-19.783-19.568c-2.559-7.334-9.497-12.261-17.265-12.261H96.519
	c-7.768,0-14.706,4.928-17.265,12.262c-3.195,9.158-10.59,16.472-19.782,19.568c-7.448,2.506-12.452,9.47-12.452,17.329v32.292
	H36.668c-4.328,0-7.837,3.509-7.837,7.837c0,4.328,3.509,7.837,7.837,7.837H47.02v36.575c0,7.859,5.004,14.823,12.451,17.33
	c9.192,3.095,16.588,10.41,19.783,19.568c2.559,7.334,9.497,12.261,17.265,12.261h38.273c4.328,0,7.837-3.509,7.837-7.837
	s-3.509-7.837-7.837-7.837H96.519c-1.11,0-2.101-0.704-2.466-1.751c-4.777-13.692-15.835-24.63-29.581-29.258
	c-1.064-0.358-1.778-1.353-1.778-2.475v-84.54c0-1.122,0.715-2.117,1.779-2.475c13.745-4.628,24.802-15.566,29.579-29.257
	c0.366-1.048,1.357-1.752,2.467-1.752h318.962c1.11,0,2.101,0.704,2.466,1.751c4.777,13.692,15.835,24.63,29.581,29.258
	c1.064,0.358,1.778,1.353,1.778,2.475v84.54c0,1.122-0.715,2.117-1.779,2.475c-13.745,4.628-24.802,15.566-29.579,29.257
	c-0.366,1.048-1.357,1.752-2.467,1.752H172.408c-4.328,0-7.837,3.509-7.837,7.837s3.509,7.837,7.837,7.837h243.072
	c7.768,0,14.706-4.928,17.265-12.262c3.195-9.158,10.59-16.472,19.782-19.568C459.976,397.781,464.98,390.817,464.98,382.958z"/>
<path d="M44.931,267.309c11.393,0,20.661-9.268,20.661-20.661c0-11.393-9.268-20.661-20.661-20.661s-20.661,9.268-20.661,20.661
	C24.271,258.041,33.539,267.309,44.931,267.309z M44.931,241.661c2.75,0,4.987,2.237,4.987,4.987c0,2.75-2.237,4.987-4.987,4.987
	s-4.987-2.237-4.987-4.987C39.944,243.898,42.181,241.661,44.931,241.661z"/>
<path d="M488.49,202.239h-63.824L288.897,66.47c0.004-0.231,0.018-0.461,0.018-0.693c0-18.149-14.765-32.914-32.914-32.914
	s-32.914,14.765-32.914,32.914c0,0.233,0.013,0.462,0.018,0.694L87.334,202.239H23.51c-12.964,0-23.51,10.546-23.51,23.51v229.878
	c0,12.964,10.546,23.51,23.51,23.51h464.98c12.964,0,23.51-10.546,23.51-23.51V225.749C512,212.786,501.454,202.239,488.49,202.239z
	 M256,48.537c9.506,0,17.241,7.734,17.241,17.241c0,9.506-7.734,17.241-17.241,17.241s-17.241-7.734-17.241-17.241
	S246.493,48.537,256,48.537z M496.327,455.627c0,4.322-3.515,7.837-7.837,7.837H23.51c-4.322,0-7.837-3.515-7.837-7.837V225.749
	c0-4.322,3.515-7.837,7.837-7.837h322.351c4.328,0,7.837-3.509,7.837-7.837c0-4.328-3.509-7.837-7.837-7.837H109.499L228.268,83.472
	c5.854,9.143,16.092,15.22,27.732,15.22c11.639,0,21.878-6.077,27.732-15.22L402.5,202.24h-25.292c-4.328,0-7.837,3.509-7.837,7.837
	c0,4.328,3.509,7.837,7.837,7.837H488.49c4.322,0,7.837,3.515,7.837,7.837V455.627z"/>
</svg>