<?xml version="1.0" encoding="iso-8859-1"?>
<!-- Uploaded to: SVG Repo, www.svgrepo.com, Generator: SVG Repo Mixer Tools -->
<svg height="800px" width="800px" version="1.1" id="Layer_1" xmlns="http://www.w3.org/2000/svg" xmlns:xlink="http://www.w3.org/1999/xlink" 
	 viewBox="0 0 512 512" xml:space="preserve">
<path style="fill:#FAD52A;" d="M271.744,120.444c-9.642,0-17.459-7.817-17.459-17.459V43.724c0-9.642,7.817-17.459,17.459-17.459
	s17.459,7.817,17.459,17.459v59.261C289.203,112.628,281.386,120.444,271.744,120.444z"/>
<path style="fill:#7E604A;" d="M494.541,301.768H17.459C7.817,301.768,0,309.585,0,319.226v135.432
	c0,9.642,7.817,17.459,17.459,17.459h477.082c9.642,0,17.459-7.817,17.459-17.459V319.226
	C512,309.585,504.183,301.768,494.541,301.768z"/>
<path style="fill:#AC825A;" d="M255.999,301.768H17.459C7.817,301.768,0,309.585,0,319.226v135.432
	c0,9.642,7.817,17.459,17.459,17.459h238.541V301.768z"/>
<path style="fill:#FAD52A;" d="M446.684,281.079l-165.151-130.44l-19.229,29.307l156.1,123.292v165.038
	c0,9.642,7.817,17.459,17.459,17.459s17.459-7.817,17.459-17.459V294.781C453.322,289.438,450.877,284.39,446.684,281.079z"/>
<path style="fill:#555559;" d="M289.203,93.551V67.834h-34.918v35.153l0.015-0.003c0.005,6.414,3.537,12.587,9.671,15.636
	c6.154,3.06,9.977,9.225,9.977,16.09c0,9.897-8.052,17.948-17.949,17.948s-17.949-8.051-17.949-17.948
	c0-9.642-7.817-17.459-17.459-17.459s-17.459,7.817-17.459,17.459c0,29.15,23.716,52.865,52.866,52.865
	c29.15,0,52.866-23.715,52.866-52.865C308.866,118.404,301.539,103.45,289.203,93.551z"/>
<path style="fill:#AEADB3;" d="M238.051,134.709c0-9.642-7.817-17.459-17.459-17.459s-17.459,7.817-17.459,17.459
	c0,29.15,23.716,52.865,52.866,52.865v-34.918C246.103,152.657,238.051,144.606,238.051,134.709z"/>
<path style="fill:#FFEA5E;" d="M270.401,142.145l-3.58-3.129c-6.342-5.011-15.3-5.011-21.642,0L65.315,281.079
	c-4.192,3.311-6.638,8.359-6.638,13.701v173.496c0,9.642,7.817,17.459,17.459,17.459s17.459-7.817,17.459-17.459V303.238
	L253.693,174.97c8.999-8.544,15.279-19.555,18.05-31.652L270.401,142.145z"/>
</svg>